<mxfile host="app.diagrams.net" modified="2021-01-25T11:00:53.387Z" agent="5.0 (Windows NT 10.0; Win64; x64) AppleWebKit/537.36 (KHTML, like Gecko) Chrome/87.0.4280.141 Safari/537.36" etag="F_pvG2TlInV4ejbHosNI" version="14.2.7" type="github">
  <diagram id="C5RBs43oDa-KdzZeNtuy" name="Page-1">
    <mxGraphModel dx="1840" dy="745" grid="0" gridSize="10" guides="1" tooltips="1" connect="1" arrows="1" fold="1" page="1" pageScale="1" pageWidth="827" pageHeight="1169" math="0" shadow="1">
      <root>
        <mxCell id="WIyWlLk6GJQsqaUBKTNV-0" />
        <mxCell id="WIyWlLk6GJQsqaUBKTNV-1" parent="WIyWlLk6GJQsqaUBKTNV-0" />
        <mxCell id="1Lqu4vhv5BZ-MltqSv_L-24" style="edgeStyle=orthogonalEdgeStyle;orthogonalLoop=1;jettySize=auto;html=1;exitX=0.5;exitY=1;exitDx=0;exitDy=0;entryX=0.5;entryY=0;entryDx=0;entryDy=0;" edge="1" parent="WIyWlLk6GJQsqaUBKTNV-1" source="MoTgqKSm8f_fm_r_Ugwx-3" target="1Lqu4vhv5BZ-MltqSv_L-11">
          <mxGeometry relative="1" as="geometry" />
        </mxCell>
        <mxCell id="MoTgqKSm8f_fm_r_Ugwx-3" value="delete" style="whiteSpace=wrap;html=1;" parent="WIyWlLk6GJQsqaUBKTNV-1" vertex="1">
          <mxGeometry x="1670" y="120" width="80" height="40" as="geometry" />
        </mxCell>
        <mxCell id="MoTgqKSm8f_fm_r_Ugwx-129" style="edgeStyle=orthogonalEdgeStyle;orthogonalLoop=1;jettySize=auto;html=1;exitX=0.5;exitY=1;exitDx=0;exitDy=0;entryX=0.5;entryY=0;entryDx=0;entryDy=0;" parent="WIyWlLk6GJQsqaUBKTNV-1" source="MoTgqKSm8f_fm_r_Ugwx-4" target="MoTgqKSm8f_fm_r_Ugwx-125" edge="1">
          <mxGeometry relative="1" as="geometry" />
        </mxCell>
        <mxCell id="MoTgqKSm8f_fm_r_Ugwx-4" value="update (put)" style="whiteSpace=wrap;html=1;" parent="WIyWlLk6GJQsqaUBKTNV-1" vertex="1">
          <mxGeometry x="1200" y="120" width="80" height="40" as="geometry" />
        </mxCell>
        <mxCell id="MoTgqKSm8f_fm_r_Ugwx-130" style="edgeStyle=orthogonalEdgeStyle;orthogonalLoop=1;jettySize=auto;html=1;exitX=0.5;exitY=1;exitDx=0;exitDy=0;entryX=0.5;entryY=0;entryDx=0;entryDy=0;" parent="WIyWlLk6GJQsqaUBKTNV-1" source="MoTgqKSm8f_fm_r_Ugwx-7" target="MoTgqKSm8f_fm_r_Ugwx-4" edge="1">
          <mxGeometry relative="1" as="geometry" />
        </mxCell>
        <mxCell id="MoTgqKSm8f_fm_r_Ugwx-7" value="start" style="ellipse;whiteSpace=wrap;html=1;" parent="WIyWlLk6GJQsqaUBKTNV-1" vertex="1">
          <mxGeometry x="1200" y="39" width="80" height="40" as="geometry" />
        </mxCell>
        <mxCell id="1Lqu4vhv5BZ-MltqSv_L-23" style="edgeStyle=orthogonalEdgeStyle;orthogonalLoop=1;jettySize=auto;html=1;exitX=0.5;exitY=1;exitDx=0;exitDy=0;entryX=0.5;entryY=0;entryDx=0;entryDy=0;" edge="1" parent="WIyWlLk6GJQsqaUBKTNV-1" source="MoTgqKSm8f_fm_r_Ugwx-8" target="MoTgqKSm8f_fm_r_Ugwx-3">
          <mxGeometry relative="1" as="geometry" />
        </mxCell>
        <mxCell id="MoTgqKSm8f_fm_r_Ugwx-8" value="start" style="ellipse;whiteSpace=wrap;html=1;" parent="WIyWlLk6GJQsqaUBKTNV-1" vertex="1">
          <mxGeometry x="1670" y="40" width="80" height="40" as="geometry" />
        </mxCell>
        <mxCell id="MoTgqKSm8f_fm_r_Ugwx-38" value="" style="group;" parent="WIyWlLk6GJQsqaUBKTNV-1" vertex="1" connectable="0">
          <mxGeometry x="620" y="39" width="447.5" height="690" as="geometry" />
        </mxCell>
        <mxCell id="MoTgqKSm8f_fm_r_Ugwx-2" value="read" style="whiteSpace=wrap;html=1;" parent="MoTgqKSm8f_fm_r_Ugwx-38" vertex="1">
          <mxGeometry x="100" y="80" width="80" height="40" as="geometry" />
        </mxCell>
        <mxCell id="MoTgqKSm8f_fm_r_Ugwx-13" style="edgeStyle=orthogonalEdgeStyle;orthogonalLoop=1;jettySize=auto;html=1;exitX=0.5;exitY=1;exitDx=0;exitDy=0;" parent="MoTgqKSm8f_fm_r_Ugwx-38" source="MoTgqKSm8f_fm_r_Ugwx-6" target="MoTgqKSm8f_fm_r_Ugwx-2" edge="1">
          <mxGeometry relative="1" as="geometry" />
        </mxCell>
        <mxCell id="MoTgqKSm8f_fm_r_Ugwx-6" value="start" style="ellipse;whiteSpace=wrap;html=1;" parent="MoTgqKSm8f_fm_r_Ugwx-38" vertex="1">
          <mxGeometry x="100" width="80" height="40" as="geometry" />
        </mxCell>
        <mxCell id="MoTgqKSm8f_fm_r_Ugwx-12" value="{id,&lt;br&gt;name,&lt;br&gt;image,&lt;br&gt;releaseDate,&lt;br&gt;duration,&lt;br&gt;directedBy,&lt;br&gt;synopsis,&lt;br&gt;genre,&lt;br&gt;createdAt,&lt;br&gt;updateAt}" style="shape=parallelogram;perimeter=parallelogramPerimeter;whiteSpace=wrap;html=1;fixedSize=1;" parent="MoTgqKSm8f_fm_r_Ugwx-38" vertex="1">
          <mxGeometry x="160" y="441" width="125" height="160" as="geometry" />
        </mxCell>
        <mxCell id="MoTgqKSm8f_fm_r_Ugwx-15" value="from movie" style="whiteSpace=wrap;html=1;" parent="MoTgqKSm8f_fm_r_Ugwx-38" vertex="1">
          <mxGeometry x="2.5" y="160" width="120" height="40" as="geometry" />
        </mxCell>
        <mxCell id="MoTgqKSm8f_fm_r_Ugwx-19" style="edgeStyle=orthogonalEdgeStyle;orthogonalLoop=1;jettySize=auto;html=1;exitX=0.5;exitY=1;exitDx=0;exitDy=0;entryX=0.5;entryY=0;entryDx=0;entryDy=0;" parent="MoTgqKSm8f_fm_r_Ugwx-38" source="MoTgqKSm8f_fm_r_Ugwx-2" target="MoTgqKSm8f_fm_r_Ugwx-15" edge="1">
          <mxGeometry relative="1" as="geometry" />
        </mxCell>
        <mxCell id="MoTgqKSm8f_fm_r_Ugwx-16" value="from movie/:id" style="whiteSpace=wrap;html=1;" parent="MoTgqKSm8f_fm_r_Ugwx-38" vertex="1">
          <mxGeometry x="162.5" y="160" width="120" height="40" as="geometry" />
        </mxCell>
        <mxCell id="MoTgqKSm8f_fm_r_Ugwx-20" style="edgeStyle=orthogonalEdgeStyle;orthogonalLoop=1;jettySize=auto;html=1;exitX=0.5;exitY=1;exitDx=0;exitDy=0;entryX=0.5;entryY=0;entryDx=0;entryDy=0;" parent="MoTgqKSm8f_fm_r_Ugwx-38" source="MoTgqKSm8f_fm_r_Ugwx-2" target="MoTgqKSm8f_fm_r_Ugwx-16" edge="1">
          <mxGeometry relative="1" as="geometry" />
        </mxCell>
        <mxCell id="MoTgqKSm8f_fm_r_Ugwx-17" value="{id,&lt;br&gt;name,&lt;br&gt;image,&lt;br&gt;releaseDate,&lt;br&gt;duration,&lt;br&gt;directedBy,&lt;br&gt;synopsis,&lt;br&gt;genre,&lt;br&gt;createdAt,&lt;br&gt;updateAt},&lt;br&gt;{ }, { }, { }, { }" style="shape=parallelogram;perimeter=parallelogramPerimeter;whiteSpace=wrap;html=1;fixedSize=1;" parent="MoTgqKSm8f_fm_r_Ugwx-38" vertex="1">
          <mxGeometry y="441" width="125" height="160" as="geometry" />
        </mxCell>
        <mxCell id="MoTgqKSm8f_fm_r_Ugwx-34" style="edgeStyle=orthogonalEdgeStyle;orthogonalLoop=1;jettySize=auto;html=1;exitX=0.5;exitY=1;exitDx=0;exitDy=0;entryX=0.5;entryY=0;entryDx=0;entryDy=0;" parent="MoTgqKSm8f_fm_r_Ugwx-38" source="MoTgqKSm8f_fm_r_Ugwx-15" target="MoTgqKSm8f_fm_r_Ugwx-17" edge="1">
          <mxGeometry relative="1" as="geometry" />
        </mxCell>
        <mxCell id="MoTgqKSm8f_fm_r_Ugwx-23" value="end" style="ellipse;whiteSpace=wrap;html=1;" parent="MoTgqKSm8f_fm_r_Ugwx-38" vertex="1">
          <mxGeometry x="100" y="650" width="80" height="40" as="geometry" />
        </mxCell>
        <mxCell id="MoTgqKSm8f_fm_r_Ugwx-36" style="edgeStyle=orthogonalEdgeStyle;orthogonalLoop=1;jettySize=auto;html=1;exitX=0.5;exitY=1;exitDx=0;exitDy=0;" parent="MoTgqKSm8f_fm_r_Ugwx-38" source="MoTgqKSm8f_fm_r_Ugwx-12" target="MoTgqKSm8f_fm_r_Ugwx-23" edge="1">
          <mxGeometry relative="1" as="geometry">
            <Array as="points">
              <mxPoint x="222.5" y="630" />
              <mxPoint x="140.5" y="630" />
            </Array>
          </mxGeometry>
        </mxCell>
        <mxCell id="MoTgqKSm8f_fm_r_Ugwx-35" style="edgeStyle=orthogonalEdgeStyle;orthogonalLoop=1;jettySize=auto;html=1;exitX=0.5;exitY=1;exitDx=0;exitDy=0;" parent="MoTgqKSm8f_fm_r_Ugwx-38" source="MoTgqKSm8f_fm_r_Ugwx-17" target="MoTgqKSm8f_fm_r_Ugwx-23" edge="1">
          <mxGeometry relative="1" as="geometry">
            <Array as="points">
              <mxPoint x="62.5" y="630" />
              <mxPoint x="140.5" y="630" />
            </Array>
          </mxGeometry>
        </mxCell>
        <mxCell id="MoTgqKSm8f_fm_r_Ugwx-31" style="edgeStyle=orthogonalEdgeStyle;orthogonalLoop=1;jettySize=auto;html=1;exitX=0.5;exitY=1;exitDx=0;exitDy=0;entryX=0.5;entryY=0;entryDx=0;entryDy=0;" parent="MoTgqKSm8f_fm_r_Ugwx-38" source="MoTgqKSm8f_fm_r_Ugwx-26" target="MoTgqKSm8f_fm_r_Ugwx-12" edge="1">
          <mxGeometry relative="1" as="geometry" />
        </mxCell>
        <mxCell id="MoTgqKSm8f_fm_r_Ugwx-26" value="movie/:id = row id &lt;br&gt;movie on DB" style="rhombus;whiteSpace=wrap;html=1;" parent="MoTgqKSm8f_fm_r_Ugwx-38" vertex="1">
          <mxGeometry x="143.5" y="245" width="158" height="150" as="geometry" />
        </mxCell>
        <mxCell id="MoTgqKSm8f_fm_r_Ugwx-27" style="edgeStyle=orthogonalEdgeStyle;orthogonalLoop=1;jettySize=auto;html=1;exitX=0.5;exitY=1;exitDx=0;exitDy=0;" parent="MoTgqKSm8f_fm_r_Ugwx-38" source="MoTgqKSm8f_fm_r_Ugwx-16" target="MoTgqKSm8f_fm_r_Ugwx-26" edge="1">
          <mxGeometry relative="1" as="geometry" />
        </mxCell>
        <mxCell id="MoTgqKSm8f_fm_r_Ugwx-37" style="edgeStyle=orthogonalEdgeStyle;orthogonalLoop=1;jettySize=auto;html=1;exitX=0.5;exitY=1;exitDx=0;exitDy=0;entryX=0.5;entryY=0;entryDx=0;entryDy=0;" parent="MoTgqKSm8f_fm_r_Ugwx-38" source="MoTgqKSm8f_fm_r_Ugwx-30" target="MoTgqKSm8f_fm_r_Ugwx-23" edge="1">
          <mxGeometry relative="1" as="geometry">
            <Array as="points">
              <mxPoint x="382.5" y="360" />
              <mxPoint x="382.5" y="630" />
              <mxPoint x="140.5" y="630" />
            </Array>
          </mxGeometry>
        </mxCell>
        <mxCell id="MoTgqKSm8f_fm_r_Ugwx-30" value="&quot;failed to get&lt;br&gt;detail of movies&quot;" style="shape=parallelogram;perimeter=parallelogramPerimeter;whiteSpace=wrap;html=1;fixedSize=1;" parent="MoTgqKSm8f_fm_r_Ugwx-38" vertex="1">
          <mxGeometry x="322.5" y="280" width="125" height="80" as="geometry" />
        </mxCell>
        <mxCell id="MoTgqKSm8f_fm_r_Ugwx-33" style="edgeStyle=orthogonalEdgeStyle;orthogonalLoop=1;jettySize=auto;html=1;exitX=1;exitY=0.5;exitDx=0;exitDy=0;entryX=0;entryY=0.5;entryDx=0;entryDy=0;" parent="MoTgqKSm8f_fm_r_Ugwx-38" source="MoTgqKSm8f_fm_r_Ugwx-26" target="MoTgqKSm8f_fm_r_Ugwx-30" edge="1">
          <mxGeometry relative="1" as="geometry" />
        </mxCell>
        <mxCell id="MoTgqKSm8f_fm_r_Ugwx-121" value="Yes" style="text;html=1;strokeColor=none;fillColor=none;align=center;verticalAlign=middle;whiteSpace=wrap;" parent="MoTgqKSm8f_fm_r_Ugwx-38" vertex="1">
          <mxGeometry x="240" y="400" width="40" height="20" as="geometry" />
        </mxCell>
        <mxCell id="MoTgqKSm8f_fm_r_Ugwx-122" value="No" style="text;html=1;strokeColor=none;fillColor=none;align=center;verticalAlign=middle;whiteSpace=wrap;" parent="MoTgqKSm8f_fm_r_Ugwx-38" vertex="1">
          <mxGeometry x="291" y="282" width="40" height="20" as="geometry" />
        </mxCell>
        <mxCell id="MoTgqKSm8f_fm_r_Ugwx-123" value="" style="group;" parent="WIyWlLk6GJQsqaUBKTNV-1" vertex="1" connectable="0">
          <mxGeometry x="30" y="40" width="522.5" height="840" as="geometry" />
        </mxCell>
        <mxCell id="MoTgqKSm8f_fm_r_Ugwx-0" value="start" style="ellipse;whiteSpace=wrap;html=1;" parent="MoTgqKSm8f_fm_r_Ugwx-123" vertex="1">
          <mxGeometry x="209" width="80" height="40" as="geometry" />
        </mxCell>
        <mxCell id="MoTgqKSm8f_fm_r_Ugwx-1" value="create" style="whiteSpace=wrap;html=1;" parent="MoTgqKSm8f_fm_r_Ugwx-123" vertex="1">
          <mxGeometry x="209" y="80" width="80" height="40" as="geometry" />
        </mxCell>
        <mxCell id="MoTgqKSm8f_fm_r_Ugwx-10" style="edgeStyle=orthogonalEdgeStyle;orthogonalLoop=1;jettySize=auto;html=1;exitX=0.5;exitY=1;exitDx=0;exitDy=0;entryX=0.5;entryY=0;entryDx=0;entryDy=0;" parent="MoTgqKSm8f_fm_r_Ugwx-123" source="MoTgqKSm8f_fm_r_Ugwx-0" target="MoTgqKSm8f_fm_r_Ugwx-1" edge="1">
          <mxGeometry relative="1" as="geometry" />
        </mxCell>
        <mxCell id="MoTgqKSm8f_fm_r_Ugwx-59" value="to movie" style="whiteSpace=wrap;html=1;" parent="MoTgqKSm8f_fm_r_Ugwx-123" vertex="1">
          <mxGeometry x="189" y="160" width="120" height="40" as="geometry" />
        </mxCell>
        <mxCell id="MoTgqKSm8f_fm_r_Ugwx-60" style="edgeStyle=orthogonalEdgeStyle;orthogonalLoop=1;jettySize=auto;html=1;exitX=0.5;exitY=1;exitDx=0;exitDy=0;entryX=0.5;entryY=0;entryDx=0;entryDy=0;" parent="MoTgqKSm8f_fm_r_Ugwx-123" source="MoTgqKSm8f_fm_r_Ugwx-1" target="MoTgqKSm8f_fm_r_Ugwx-59" edge="1">
          <mxGeometry relative="1" as="geometry" />
        </mxCell>
        <mxCell id="MoTgqKSm8f_fm_r_Ugwx-62" value="idGenre = row idGenre&lt;br&gt;on tabel movie_genres" style="rhombus;whiteSpace=wrap;html=1;" parent="MoTgqKSm8f_fm_r_Ugwx-123" vertex="1">
          <mxGeometry x="170" y="440" width="158" height="150" as="geometry" />
        </mxCell>
        <mxCell id="MoTgqKSm8f_fm_r_Ugwx-63" value="&quot;movie successfully created&quot;" style="shape=parallelogram;perimeter=parallelogramPerimeter;whiteSpace=wrap;html=1;fixedSize=1;" parent="MoTgqKSm8f_fm_r_Ugwx-123" vertex="1">
          <mxGeometry x="172.75" y="630" width="152.5" height="80" as="geometry" />
        </mxCell>
        <mxCell id="MoTgqKSm8f_fm_r_Ugwx-89" style="edgeStyle=orthogonalEdgeStyle;orthogonalLoop=1;jettySize=auto;html=1;exitX=0.5;exitY=1;exitDx=0;exitDy=0;entryX=0.5;entryY=0;entryDx=0;entryDy=0;" parent="MoTgqKSm8f_fm_r_Ugwx-123" source="MoTgqKSm8f_fm_r_Ugwx-62" target="MoTgqKSm8f_fm_r_Ugwx-63" edge="1">
          <mxGeometry relative="1" as="geometry" />
        </mxCell>
        <mxCell id="MoTgqKSm8f_fm_r_Ugwx-87" value="end" style="ellipse;whiteSpace=wrap;html=1;" parent="MoTgqKSm8f_fm_r_Ugwx-123" vertex="1">
          <mxGeometry x="210" y="800" width="79" height="40" as="geometry" />
        </mxCell>
        <mxCell id="MoTgqKSm8f_fm_r_Ugwx-110" style="edgeStyle=orthogonalEdgeStyle;orthogonalLoop=1;jettySize=auto;html=1;exitX=0.5;exitY=1;exitDx=0;exitDy=0;" parent="MoTgqKSm8f_fm_r_Ugwx-123" source="MoTgqKSm8f_fm_r_Ugwx-63" target="MoTgqKSm8f_fm_r_Ugwx-87" edge="1">
          <mxGeometry relative="1" as="geometry" />
        </mxCell>
        <mxCell id="MoTgqKSm8f_fm_r_Ugwx-96" style="edgeStyle=orthogonalEdgeStyle;orthogonalLoop=1;jettySize=auto;html=1;exitX=0.5;exitY=1;exitDx=0;exitDy=0;entryX=0.5;entryY=0;entryDx=0;entryDy=0;" parent="MoTgqKSm8f_fm_r_Ugwx-123" source="MoTgqKSm8f_fm_r_Ugwx-92" target="MoTgqKSm8f_fm_r_Ugwx-62" edge="1">
          <mxGeometry relative="1" as="geometry" />
        </mxCell>
        <mxCell id="MoTgqKSm8f_fm_r_Ugwx-92" value="&lt;span&gt;admin fill&lt;br&gt;name,&lt;/span&gt;&lt;br&gt;&lt;span&gt;image,&lt;/span&gt;&lt;br&gt;&lt;span&gt;releaseDate,&lt;/span&gt;&lt;br&gt;&lt;span&gt;duration,&lt;/span&gt;&lt;br&gt;&lt;span&gt;directedBy,&lt;/span&gt;&lt;br&gt;&lt;span&gt;synopsis,&lt;/span&gt;&lt;br&gt;&lt;span&gt;idGenre ?&lt;/span&gt;" style="rhombus;whiteSpace=wrap;html=1;" parent="MoTgqKSm8f_fm_r_Ugwx-123" vertex="1">
          <mxGeometry x="153.5" y="240" width="191" height="160" as="geometry" />
        </mxCell>
        <mxCell id="MoTgqKSm8f_fm_r_Ugwx-93" style="edgeStyle=orthogonalEdgeStyle;orthogonalLoop=1;jettySize=auto;html=1;exitX=0.5;exitY=1;exitDx=0;exitDy=0;entryX=0.5;entryY=0;entryDx=0;entryDy=0;" parent="MoTgqKSm8f_fm_r_Ugwx-123" source="MoTgqKSm8f_fm_r_Ugwx-59" target="MoTgqKSm8f_fm_r_Ugwx-92" edge="1">
          <mxGeometry relative="1" as="geometry" />
        </mxCell>
        <mxCell id="MoTgqKSm8f_fm_r_Ugwx-112" style="edgeStyle=orthogonalEdgeStyle;orthogonalLoop=1;jettySize=auto;html=1;exitX=0.5;exitY=1;exitDx=0;exitDy=0;entryX=0.5;entryY=0;entryDx=0;entryDy=0;" parent="MoTgqKSm8f_fm_r_Ugwx-123" source="MoTgqKSm8f_fm_r_Ugwx-97" target="MoTgqKSm8f_fm_r_Ugwx-87" edge="1">
          <mxGeometry relative="1" as="geometry">
            <Array as="points">
              <mxPoint x="76" y="760" />
              <mxPoint x="249" y="760" />
            </Array>
          </mxGeometry>
        </mxCell>
        <mxCell id="MoTgqKSm8f_fm_r_Ugwx-97" value="&quot;failed to create movie&quot;" style="shape=parallelogram;perimeter=parallelogramPerimeter;whiteSpace=wrap;html=1;fixedSize=1;" parent="MoTgqKSm8f_fm_r_Ugwx-123" vertex="1">
          <mxGeometry y="630" width="152.5" height="80" as="geometry" />
        </mxCell>
        <mxCell id="MoTgqKSm8f_fm_r_Ugwx-99" style="edgeStyle=orthogonalEdgeStyle;orthogonalLoop=1;jettySize=auto;html=1;exitX=0;exitY=0.5;exitDx=0;exitDy=0;" parent="MoTgqKSm8f_fm_r_Ugwx-123" source="MoTgqKSm8f_fm_r_Ugwx-92" target="MoTgqKSm8f_fm_r_Ugwx-97" edge="1">
          <mxGeometry relative="1" as="geometry" />
        </mxCell>
        <mxCell id="MoTgqKSm8f_fm_r_Ugwx-111" style="edgeStyle=orthogonalEdgeStyle;orthogonalLoop=1;jettySize=auto;html=1;exitX=0.5;exitY=1;exitDx=0;exitDy=0;entryX=0.5;entryY=0;entryDx=0;entryDy=0;" parent="MoTgqKSm8f_fm_r_Ugwx-123" source="MoTgqKSm8f_fm_r_Ugwx-98" target="MoTgqKSm8f_fm_r_Ugwx-87" edge="1">
          <mxGeometry relative="1" as="geometry">
            <Array as="points">
              <mxPoint x="446" y="760" />
              <mxPoint x="249" y="760" />
            </Array>
          </mxGeometry>
        </mxCell>
        <mxCell id="MoTgqKSm8f_fm_r_Ugwx-98" value="&quot;some genre are unavailable&quot;" style="shape=parallelogram;perimeter=parallelogramPerimeter;whiteSpace=wrap;html=1;fixedSize=1;" parent="MoTgqKSm8f_fm_r_Ugwx-123" vertex="1">
          <mxGeometry x="370" y="475" width="152.5" height="80" as="geometry" />
        </mxCell>
        <mxCell id="MoTgqKSm8f_fm_r_Ugwx-105" style="edgeStyle=orthogonalEdgeStyle;orthogonalLoop=1;jettySize=auto;html=1;exitX=1;exitY=0.5;exitDx=0;exitDy=0;entryX=0;entryY=0.5;entryDx=0;entryDy=0;" parent="MoTgqKSm8f_fm_r_Ugwx-123" source="MoTgqKSm8f_fm_r_Ugwx-62" target="MoTgqKSm8f_fm_r_Ugwx-98" edge="1">
          <mxGeometry relative="1" as="geometry" />
        </mxCell>
        <mxCell id="MoTgqKSm8f_fm_r_Ugwx-113" value="Yes" style="text;html=1;strokeColor=none;fillColor=none;align=center;verticalAlign=middle;whiteSpace=wrap;" parent="MoTgqKSm8f_fm_r_Ugwx-123" vertex="1">
          <mxGeometry x="250" y="410" width="40" height="20" as="geometry" />
        </mxCell>
        <mxCell id="MoTgqKSm8f_fm_r_Ugwx-115" value="Yes" style="text;html=1;strokeColor=none;fillColor=none;align=center;verticalAlign=middle;whiteSpace=wrap;" parent="MoTgqKSm8f_fm_r_Ugwx-123" vertex="1">
          <mxGeometry x="249" y="600" width="40" height="20" as="geometry" />
        </mxCell>
        <mxCell id="MoTgqKSm8f_fm_r_Ugwx-116" value="No" style="text;html=1;strokeColor=none;fillColor=none;align=center;verticalAlign=middle;whiteSpace=wrap;" parent="MoTgqKSm8f_fm_r_Ugwx-123" vertex="1">
          <mxGeometry x="89" y="298" width="40" height="20" as="geometry" />
        </mxCell>
        <mxCell id="MoTgqKSm8f_fm_r_Ugwx-117" value="No" style="text;html=1;strokeColor=none;fillColor=none;align=center;verticalAlign=middle;whiteSpace=wrap;" parent="MoTgqKSm8f_fm_r_Ugwx-123" vertex="1">
          <mxGeometry x="330" y="490" width="40" height="20" as="geometry" />
        </mxCell>
        <mxCell id="1Lqu4vhv5BZ-MltqSv_L-2" style="edgeStyle=orthogonalEdgeStyle;orthogonalLoop=1;jettySize=auto;html=1;exitX=0.5;exitY=1;exitDx=0;exitDy=0;entryX=0.5;entryY=0;entryDx=0;entryDy=0;" edge="1" parent="WIyWlLk6GJQsqaUBKTNV-1" source="MoTgqKSm8f_fm_r_Ugwx-125" target="1Lqu4vhv5BZ-MltqSv_L-0">
          <mxGeometry relative="1" as="geometry" />
        </mxCell>
        <mxCell id="MoTgqKSm8f_fm_r_Ugwx-125" value="to movie:/id" style="whiteSpace=wrap;html=1;" parent="WIyWlLk6GJQsqaUBKTNV-1" vertex="1">
          <mxGeometry x="1200" y="200" width="80" height="40" as="geometry" />
        </mxCell>
        <mxCell id="1Lqu4vhv5BZ-MltqSv_L-6" style="edgeStyle=orthogonalEdgeStyle;orthogonalLoop=1;jettySize=auto;html=1;exitX=0.5;exitY=1;exitDx=0;exitDy=0;" edge="1" parent="WIyWlLk6GJQsqaUBKTNV-1" source="MoTgqKSm8f_fm_r_Ugwx-133" target="MoTgqKSm8f_fm_r_Ugwx-141">
          <mxGeometry relative="1" as="geometry" />
        </mxCell>
        <mxCell id="MoTgqKSm8f_fm_r_Ugwx-133" value="fill the body request to enter new value" style="whiteSpace=wrap;html=1;" parent="WIyWlLk6GJQsqaUBKTNV-1" vertex="1">
          <mxGeometry x="1175" y="460" width="129" height="80" as="geometry" />
        </mxCell>
        <mxCell id="MoTgqKSm8f_fm_r_Ugwx-139" value="end" style="ellipse;whiteSpace=wrap;html=1;" parent="WIyWlLk6GJQsqaUBKTNV-1" vertex="1">
          <mxGeometry x="1200.5" y="690" width="80" height="40" as="geometry" />
        </mxCell>
        <mxCell id="1Lqu4vhv5BZ-MltqSv_L-8" style="edgeStyle=orthogonalEdgeStyle;orthogonalLoop=1;jettySize=auto;html=1;exitX=0.5;exitY=1;exitDx=0;exitDy=0;entryX=0.5;entryY=0;entryDx=0;entryDy=0;" edge="1" parent="WIyWlLk6GJQsqaUBKTNV-1" source="MoTgqKSm8f_fm_r_Ugwx-141" target="MoTgqKSm8f_fm_r_Ugwx-139">
          <mxGeometry relative="1" as="geometry" />
        </mxCell>
        <mxCell id="MoTgqKSm8f_fm_r_Ugwx-141" value="&quot;Update movie success&quot;" style="shape=parallelogram;perimeter=parallelogramPerimeter;whiteSpace=wrap;html=1;fixedSize=1;" parent="WIyWlLk6GJQsqaUBKTNV-1" vertex="1">
          <mxGeometry x="1177" y="578" width="125" height="80" as="geometry" />
        </mxCell>
        <mxCell id="1Lqu4vhv5BZ-MltqSv_L-3" style="edgeStyle=orthogonalEdgeStyle;orthogonalLoop=1;jettySize=auto;html=1;exitX=1;exitY=0.5;exitDx=0;exitDy=0;entryX=0;entryY=0.5;entryDx=0;entryDy=0;" edge="1" parent="WIyWlLk6GJQsqaUBKTNV-1" source="1Lqu4vhv5BZ-MltqSv_L-0" target="1Lqu4vhv5BZ-MltqSv_L-1">
          <mxGeometry relative="1" as="geometry" />
        </mxCell>
        <mxCell id="1Lqu4vhv5BZ-MltqSv_L-4" style="edgeStyle=orthogonalEdgeStyle;orthogonalLoop=1;jettySize=auto;html=1;exitX=0.5;exitY=1;exitDx=0;exitDy=0;entryX=0.5;entryY=0;entryDx=0;entryDy=0;" edge="1" parent="WIyWlLk6GJQsqaUBKTNV-1" source="1Lqu4vhv5BZ-MltqSv_L-0" target="MoTgqKSm8f_fm_r_Ugwx-133">
          <mxGeometry relative="1" as="geometry" />
        </mxCell>
        <mxCell id="1Lqu4vhv5BZ-MltqSv_L-0" value="movie/:id = row id &lt;br&gt;movie on DB" style="rhombus;whiteSpace=wrap;html=1;" vertex="1" parent="WIyWlLk6GJQsqaUBKTNV-1">
          <mxGeometry x="1161" y="270" width="158" height="150" as="geometry" />
        </mxCell>
        <mxCell id="1Lqu4vhv5BZ-MltqSv_L-9" style="edgeStyle=orthogonalEdgeStyle;orthogonalLoop=1;jettySize=auto;html=1;exitX=0.5;exitY=1;exitDx=0;exitDy=0;entryX=1;entryY=0.5;entryDx=0;entryDy=0;" edge="1" parent="WIyWlLk6GJQsqaUBKTNV-1" source="1Lqu4vhv5BZ-MltqSv_L-1" target="MoTgqKSm8f_fm_r_Ugwx-139">
          <mxGeometry relative="1" as="geometry" />
        </mxCell>
        <mxCell id="1Lqu4vhv5BZ-MltqSv_L-1" value="&quot;failed to get&lt;br&gt;detail of movies&quot;" style="shape=parallelogram;perimeter=parallelogramPerimeter;whiteSpace=wrap;html=1;fixedSize=1;" vertex="1" parent="WIyWlLk6GJQsqaUBKTNV-1">
          <mxGeometry x="1360" y="305" width="125" height="80" as="geometry" />
        </mxCell>
        <mxCell id="1Lqu4vhv5BZ-MltqSv_L-10" style="edgeStyle=orthogonalEdgeStyle;orthogonalLoop=1;jettySize=auto;html=1;exitX=0.5;exitY=1;exitDx=0;exitDy=0;entryX=0.5;entryY=0;entryDx=0;entryDy=0;" edge="1" parent="WIyWlLk6GJQsqaUBKTNV-1" source="1Lqu4vhv5BZ-MltqSv_L-11" target="1Lqu4vhv5BZ-MltqSv_L-19">
          <mxGeometry relative="1" as="geometry" />
        </mxCell>
        <mxCell id="1Lqu4vhv5BZ-MltqSv_L-11" value="to movie:/id" style="whiteSpace=wrap;html=1;" vertex="1" parent="WIyWlLk6GJQsqaUBKTNV-1">
          <mxGeometry x="1669" y="200" width="80" height="40" as="geometry" />
        </mxCell>
        <mxCell id="1Lqu4vhv5BZ-MltqSv_L-14" value="end" style="ellipse;whiteSpace=wrap;html=1;" vertex="1" parent="WIyWlLk6GJQsqaUBKTNV-1">
          <mxGeometry x="1669.5" y="690" width="80" height="40" as="geometry" />
        </mxCell>
        <mxCell id="1Lqu4vhv5BZ-MltqSv_L-15" style="edgeStyle=orthogonalEdgeStyle;orthogonalLoop=1;jettySize=auto;html=1;exitX=0.5;exitY=1;exitDx=0;exitDy=0;entryX=0.5;entryY=0;entryDx=0;entryDy=0;" edge="1" parent="WIyWlLk6GJQsqaUBKTNV-1" source="1Lqu4vhv5BZ-MltqSv_L-16" target="1Lqu4vhv5BZ-MltqSv_L-14">
          <mxGeometry relative="1" as="geometry" />
        </mxCell>
        <mxCell id="1Lqu4vhv5BZ-MltqSv_L-16" value="&quot;Delete movie success&quot;" style="shape=parallelogram;perimeter=parallelogramPerimeter;whiteSpace=wrap;html=1;fixedSize=1;" vertex="1" parent="WIyWlLk6GJQsqaUBKTNV-1">
          <mxGeometry x="1646" y="578" width="125" height="80" as="geometry" />
        </mxCell>
        <mxCell id="1Lqu4vhv5BZ-MltqSv_L-17" style="edgeStyle=orthogonalEdgeStyle;orthogonalLoop=1;jettySize=auto;html=1;exitX=1;exitY=0.5;exitDx=0;exitDy=0;entryX=0;entryY=0.5;entryDx=0;entryDy=0;" edge="1" parent="WIyWlLk6GJQsqaUBKTNV-1" source="1Lqu4vhv5BZ-MltqSv_L-19" target="1Lqu4vhv5BZ-MltqSv_L-21">
          <mxGeometry relative="1" as="geometry" />
        </mxCell>
        <mxCell id="1Lqu4vhv5BZ-MltqSv_L-22" style="edgeStyle=orthogonalEdgeStyle;orthogonalLoop=1;jettySize=auto;html=1;exitX=0.5;exitY=1;exitDx=0;exitDy=0;" edge="1" parent="WIyWlLk6GJQsqaUBKTNV-1" source="1Lqu4vhv5BZ-MltqSv_L-19" target="1Lqu4vhv5BZ-MltqSv_L-16">
          <mxGeometry relative="1" as="geometry" />
        </mxCell>
        <mxCell id="1Lqu4vhv5BZ-MltqSv_L-19" value="movie/:id = row id &lt;br&gt;movie on DB" style="rhombus;whiteSpace=wrap;html=1;" vertex="1" parent="WIyWlLk6GJQsqaUBKTNV-1">
          <mxGeometry x="1630" y="270" width="158" height="150" as="geometry" />
        </mxCell>
        <mxCell id="1Lqu4vhv5BZ-MltqSv_L-20" style="edgeStyle=orthogonalEdgeStyle;orthogonalLoop=1;jettySize=auto;html=1;exitX=0.5;exitY=1;exitDx=0;exitDy=0;entryX=1;entryY=0.5;entryDx=0;entryDy=0;" edge="1" parent="WIyWlLk6GJQsqaUBKTNV-1" source="1Lqu4vhv5BZ-MltqSv_L-21" target="1Lqu4vhv5BZ-MltqSv_L-14">
          <mxGeometry relative="1" as="geometry" />
        </mxCell>
        <mxCell id="1Lqu4vhv5BZ-MltqSv_L-21" value="&quot;failed to delete&lt;br&gt;movie&quot;" style="shape=parallelogram;perimeter=parallelogramPerimeter;whiteSpace=wrap;html=1;fixedSize=1;" vertex="1" parent="WIyWlLk6GJQsqaUBKTNV-1">
          <mxGeometry x="1829" y="305" width="125" height="80" as="geometry" />
        </mxCell>
      </root>
    </mxGraphModel>
  </diagram>
</mxfile>
